PathFileType	4	(X/Y/Z)	C:\Users\Basilio\Documents\Thesis Gigler\squatting_fais\c3dfiles\041\SJ_pre4\markers_experimental.trc
DataRate	CameraRate	NumFrames	NumMarkers	Units	OrigDataRate	OrigDataStartFrame	OrigNumFrames
200.000000	200.000000	4	62	mm	200.000000	446	1785
Frame#	Time	FHD			LBHD			RBHD			C7			T10			CLAV			LSHO			LUUPA			LMUPA			LDUPA			LLEP			LMEP			LRAD			LUL			LRFIN			RSHO			RUPA1			RMUPA			RDUPA			RLEP			RMEP			RRAD			RUL			RUFIN			LASI			RASI			USACR			LSACR			RSACR			LTHI1			LTHI2			LTHI3			LTHI4			LLFC			LMFC			LTIB1			LTIB2			LTIB3			LTIB4			LLMAL			LMMAL			LHEE			LMT1			LMT2			LMT5			RTHI			RTHI2			RTHI3			RTHI4			RLFC			RMFC			RTIB1			RTIB2			RTIB3			RTIB4			RLMAL			RMMAL			RHEE			RMT1			RMT2			RMT5			*61			
		X1	Y1	Z1	X2	Y2	Z2	X3	Y3	Z3	X4	Y4	Z4	X5	Y5	Z5	X6	Y6	Z6	X7	Y7	Z7	X8	Y8	Z8	X9	Y9	Z9	X10	Y10	Z10	X11	Y11	Z11	X12	Y12	Z12	X13	Y13	Z13	X14	Y14	Z14	X15	Y15	Z15	X16	Y16	Z16	X17	Y17	Z17	X18	Y18	Z18	X19	Y19	Z19	X20	Y20	Z20	X21	Y21	Z21	X22	Y22	Z22	X23	Y23	Z23	X24	Y24	Z24	X25	Y25	Z25	X26	Y26	Z26	X27	Y27	Z27	X28	Y28	Z28	X29	Y29	Z29	X30	Y30	Z30	X31	Y31	Z31	X32	Y32	Z32	X33	Y33	Z33	X34	Y34	Z34	X35	Y35	Z35	X36	Y36	Z36	X37	Y37	Z37	X38	Y38	Z38	X39	Y39	Z39	X40	Y40	Z40	X41	Y41	Z41	X42	Y42	Z42	X43	Y43	Z43	X44	Y44	Z44	X45	Y45	Z45	X46	Y46	Z46	X47	Y47	Z47	X48	Y48	Z48	X49	Y49	Z49	X50	Y50	Z50	X51	Y51	Z51	X52	Y52	Z52	X53	Y53	Z53	X54	Y54	Z54	X55	Y55	Z55	X56	Y56	Z56	X57	Y57	Z57	X58	Y58	Z58	X59	Y59	Z59	X60	Y60	Z60	X61	Y61	Z61	X62	Y62	Z62	

447	2.23	-221.3124389648438	1714.612426757813	-910.459655761719	-406.2192993164064	1680.886840820313	-988.1754150390627	-386.0943603515626	1675.065307617188	-835.6958618164065	-460.7197875976564	1519.869750976563	-930.522644042969	-480.5543823242189	1200.264526367188	-935.869812011719	-305.9060668945313	1456.8740234375	-932.069519042969	-389.7583923339845	1515.111206054688	-1100.544921875	-449.0677185058595	1383.658569335938	-1241.650512695313	-425.4341735839845	1339.553466796875	-1242.732788085938	-470.8923339843751	1332.275268554688	-1283.148193359375	-480.6172180175782	1286.049438476563	-1308.864013671875	-533.2185668945314	1243.183227539063	-1245.318237304688	-380.8752136230469	1091.617553710938	-1149.871215820313	-362.8338928222657	1055.308837890625	-1211.931762695313	-331.9009399414063	1074.352905273438	-1112.216552734375	-379.0355224609376	1506.61279296875	-762.4548950195314	-449.0858154296876	1357.34375	-609.8753051757814	-405.4203491210939	1331.457275390625	-613.1359252929689	-432.3979492187501	1297.809204101563	-574.4715576171876	-427.1181640625001	1249.53173828125	-557.2716064453126	-496.552947998047	1221.332763671875	-614.5488281250001	-389.8605957031251	1053.60400390625	-720.1333007812501	-346.2479858398438	1051.959106445313	-765.0375976562501	-351.2333984375001	1017.648864746094	-665.1007080078126	-293.5895996093751	1015.344360351563	-1047.760498046875	-303.1029357910157	1001.471313476563	-828.9390869140627	-478.6929016113282	1089.437744140625	-942.4709472656252	-493.3866577148439	1064.8486328125	-970.3626708984377	-499.8748474121095	1064.169067382813	-917.189147949219	-421.8478088378907	823.580505371094	-1142.86767578125	-385.5802612304689	746.9151611328126	-1150.028686523438	-338.5110473632813	750.2244262695314	-1140.09765625	-413.5669555664064	692.4763793945314	-1143.426513671875	-390.6502990722657	513.5908203125001	-1152.60009765625	-378.5088195800782	479.1621704101564	-1038.314697265625	-359.7453918457032	316.5582885742188	-1125.293090820313	-408.7564086914064	282.7474670410157	-1193.943115234375	-371.6427001953126	275.6691589355469	-1168.04833984375	-372.0846862792969	194.3754882812501	-1146.88720703125	-430.9461364746095	102.0003967285157	-1199.619506835938	-391.932586669922	103.5668182373047	-1117.619995117188	-487.2731933593751	52.29885864257814	-1166.680908203125	-270.4864501953126	60.66442871093751	-1140.34912109375	-264.6114501953126	60.5271682739258	-1185.058959960938	-303.7234802246094	36.26308822631837	-1241.685302734375	-441.5682373046876	765.4346923828126	-741.7008056640626	-407.2187805175782	708.6868286132814	-734.1041259765626	-374.1623229980469	707.6879882812501	-738.3489990234376	-439.9766235351564	631.2897338867189	-743.5893554687501	-443.727020263672	503.8993530273439	-732.0058593750001	-420.5286254882814	472.0389404296876	-845.9829101562502	-399.5694885253907	340.9022827148438	-718.8532104492189	-474.8300781250001	260.1244201660157	-699.1282958984376	-427.868621826172	261.8199157714844	-696.3080444335939	-399.6396789550782	213.3962402343751	-717.0212402343751	-443.1100158691407	94.25833892822267	-692.4823608398439	-411.3840332031251	102.4571380615235	-770.5357666015627	-494.9139099121095	49.4570655822754	-739.4970703125001	-277.2221069335938	53.7872772216797	-736.6279907226564	-277.2904357910157	59.06915283203126	-684.5584106445314	-322.8630065917969	37.06425857543946	-636.9912719726564	-4216.668945312501	853.1494750976565	-3944.625000000001	
448	2.235	-221.2753601074219	1714.634887695313	-910.6030273437502	-406.2220764160157	1680.883422851563	-988.1860351562502	-386.0710754394532	1675.08984375	-835.7285766601565	-460.7948303222657	1519.886352539063	-930.5218505859377	-480.6184082031251	1200.303100585938	-935.815368652344	-305.8780212402344	1456.8857421875	-931.9949951171877	-389.7534179687501	1515.084716796875	-1100.533813476563	-448.8361206054689	1383.302856445313	-1241.641235351563	-425.5261535644532	1339.52490234375	-1242.724609375	-471.0554199218751	1332.315063476563	-1283.155517578125	-480.8307189941407	1286.0615234375	-1308.799438476563	-533.3179931640626	1243.186645507813	-1245.270874023438	-381.0907592773438	1091.609985351563	-1149.850463867188	-363.0129089355469	1055.301635742188	-1211.949340820313	-331.9704284667969	1074.334594726563	-1112.228637695313	-379.0549621582032	1506.631591796875	-762.4542846679689	-449.1573486328126	1357.401245117188	-609.8679199218751	-405.4101867675782	1331.514038085938	-613.1338500976564	-432.3809509277345	1297.845092773438	-574.4852294921876	-427.2014160156251	1249.62646484375	-557.4931030273439	-496.5481872558595	1221.391845703125	-614.5656127929689	-389.8887634277345	1053.646484375	-720.1026611328126	-346.3011169433594	1051.975708007813	-765.0884399414064	-351.2481384277344	1017.627563476563	-665.1077270507814	-293.6542968750001	1015.354736328125	-1047.806274414063	-303.1663818359376	1001.438781738281	-828.901306152344	-478.7525939941407	1089.469482421875	-942.4431152343752	-493.5042419433595	1064.96240234375	-970.3040771484377	-499.981170654297	1064.182373046875	-917.195007324219	-422.146209716797	823.6353759765627	-1142.857543945313	-385.8678588867189	746.9374389648439	-1150.043090820313	-338.7319641113282	750.2374267578126	-1140.1396484375	-413.8694152832032	692.5366821289064	-1143.414428710938	-390.9517517089845	513.6177978515626	-1152.617431640625	-378.8584594726563	479.1816406250001	-1038.248779296875	-359.7456665039063	316.6759948730469	-1125.234741210938	-408.9049682617189	282.7398071289063	-1193.925659179688	-371.7588500976563	275.6863098144532	-1168.078002929688	-372.1207885742188	194.4558258056641	-1146.827514648438	-430.8841552734376	101.9646835327149	-1199.668090820313	-391.8487243652345	103.5216903686524	-1117.724731445313	-487.2982482910157	52.28231811523439	-1166.666015625	-270.4698486328126	60.68841552734376	-1140.3525390625	-264.5769653320313	60.57915115356447	-1185.014038085938	-303.7381896972657	36.32999801635743	-1241.726806640625	-441.6638793945314	765.3712768554689	-741.7200927734376	-407.332733154297	708.4620971679689	-734.4438476562501	-374.4520263671876	707.2844238281251	-738.5585327148439	-440.0582580566407	631.2721557617189	-743.6228027343751	-443.7829895019532	503.8822631835939	-732.0092773437501	-420.6955566406251	472.0274353027345	-846.001159667969	-399.6377563476564	340.9194030761719	-718.8712158203126	-474.8967285156251	260.1609802246094	-699.2166137695314	-427.9242553710939	261.8412780761719	-696.2734375000001	-399.6897277832032	213.4081115722657	-717.0093383789064	-443.128875732422	94.27713012695314	-692.4694213867189	-411.3583068847657	102.4337387084961	-770.5344238281252	-494.927459716797	49.50017166137697	-739.4990844726564	-277.2311096191407	53.7908172607422	-736.5990600585939	-277.2517089843751	59.04448699951173	-684.5559692382814	-322.8699645996094	37.04320907592774	-636.9537353515626	-4217.003417968751	853.181091308594	-3944.640136718751	
449	2.24	-221.2032165527344	1714.649780273438	-910.6561279296877	-406.173553466797	1680.88330078125	-988.2673950195315	-386.0840759277345	1675.119995117188	-835.7161254882815	-460.811248779297	1519.953491210938	-930.5061035156252	-480.6329956054689	1200.340576171875	-935.7983398437502	-305.8969726562501	1456.880859375	-932.0805664062502	-389.8606872558595	1515.091186523438	-1100.561157226563	-448.8160400390626	1383.30078125	-1241.653564453125	-425.6701965332032	1339.535034179688	-1242.704833984375	-471.1843261718751	1332.332275390625	-1283.131469726563	-480.8772583007814	1286.088623046875	-1308.831298828125	-533.4245605468751	1243.21728515625	-1245.227294921875	-381.2437744140626	1091.601440429688	-1149.84228515625	-363.1736145019532	1055.317016601563	-1211.937255859375	-332.2762145996094	1074.300048828125	-1112.192993164063	-379.0307312011719	1506.693725585938	-762.4791870117189	-449.1984252929689	1357.3916015625	-609.9237060546876	-405.4513549804689	1331.521362304688	-613.1510620117189	-432.3445129394532	1297.865844726563	-574.4667358398439	-427.2091064453126	1249.673706054688	-557.5278930664064	-496.5802612304689	1221.4560546875	-614.5352783203126	-390.0003967285157	1053.642211914063	-720.1284179687501	-346.3463134765626	1051.9619140625	-765.0560913085939	-351.2993774414063	1017.659912109375	-665.1111450195314	-293.7622985839844	1015.375427246094	-1047.813232421875	-303.2594299316407	1001.429504394531	-828.933776855469	-478.920379638672	1089.537841796875	-942.3989868164065	-493.6456909179689	1064.98095703125	-970.2830200195315	-500.0322265625001	1064.24755859375	-917.131286621094	-422.3439941406251	823.6147460937502	-1142.867431640625	-386.143524169922	746.9856567382814	-1150.019287109375	-339.0073852539063	750.2544555664064	-1140.147583007813	-414.1390686035157	692.5894165039064	-1143.328857421875	-391.1780395507814	513.6067504882814	-1152.608642578125	-379.0454101562501	479.1857299804689	-1038.283813476563	-359.9814453125001	316.7980957031251	-1125.305419921875	-409.2430114746095	283.2486572265626	-1193.893310546875	-371.8483276367188	275.6977844238282	-1168.119140625	-372.2390136718751	194.4750213623047	-1146.859375	-430.8224182128907	101.9465866088867	-1199.748779296875	-391.815399169922	103.6190414428711	-1117.802612304688	-487.2726440429689	52.30383682250978	-1166.708251953125	-270.4889831542969	60.718563079834	-1140.33349609375	-264.5781860351563	60.61041259765626	-1185.030639648438	-303.6360473632813	36.08948516845704	-1241.733764648438	-441.798797607422	765.3815917968751	-741.7066650390626	-407.4155883789064	708.3690795898439	-734.5219116210939	-374.3295898437501	707.6889038085939	-738.2777099609376	-440.2026367187501	631.3077392578126	-743.5891723632814	-443.8380737304689	503.8839111328126	-732.0369873046876	-420.7185974121095	472.0172424316407	-845.997009277344	-399.673309326172	340.9490356445313	-718.9431762695314	-474.9292297363282	260.1538696289063	-699.1934204101564	-427.9420166015626	261.8443298339844	-696.3002929687501	-399.7651977539064	213.4238586425782	-716.9223022460939	-443.1248474121095	94.29054260253908	-692.4882812500001	-411.4301757812501	102.46923828125	-770.538269042969	-494.9466857910157	49.4835777282715	-739.4981079101564	-277.2409667968751	53.77904129028322	-736.5933227539064	-277.2256164550782	59.03773117065431	-684.5885620117189	-322.8406066894532	37.06506347656251	-636.9847412109376	-4216.826660156251	853.1751708984377	-3944.644531250001	
450	2.245	-221.2430419921876	1714.653442382813	-910.7058105468752	-406.1881103515626	1680.853759765625	-988.2822265625002	-386.0736083984376	1675.14306640625	-835.7275390625002	-460.857147216797	1519.9423828125	-930.5029296875002	-480.7108154296876	1200.390502929688	-935.7646484375002	-305.9073181152344	1456.926391601563	-932.0739746093752	-389.8990173339845	1515.070190429688	-1100.555908203125	-449.1264038085939	1383.438720703125	-1241.62109375	-425.7279663085939	1339.5322265625	-1242.730224609375	-471.2897338867189	1332.368286132813	-1283.09130859375	-481.0182189941407	1286.068237304688	-1308.814331054688	-533.5300292968751	1243.2412109375	-1245.219848632813	-381.3908996582032	1091.622192382813	-1149.829956054688	-363.3349304199219	1055.283447265625	-1211.9267578125	-332.3058166503907	1074.270263671875	-1112.248413085938	-379.0253295898438	1506.723999023438	-762.4912719726564	-449.1582336425782	1357.437744140625	-609.8958129882814	-405.4487915039064	1331.583740234375	-613.1672973632814	-432.3550415039064	1297.89990234375	-574.4646606445314	-427.2036743164064	1249.683471679688	-557.5551757812501	-496.584686279297	1221.4814453125	-614.5326538085939	-390.0292358398439	1053.677368164063	-720.1147460937501	-346.4093627929688	1051.95361328125	-765.0689697265626	-351.3045959472657	1017.686096191406	-665.1096801757814	-293.7844238281251	1015.308837890625	-1047.857055664063	-303.3724975585938	1001.428039550781	-828.9379882812502	-479.0154418945314	1089.587768554688	-942.366638183594	-493.7098083496095	1065.022827148438	-970.2388916015627	-500.1397399902345	1064.290161132813	-917.1043701171877	-422.3763427734376	823.0376586914065	-1142.866455078125	-386.4899902343751	747.0017089843751	-1150.027709960938	-339.2799987792969	750.2998657226564	-1140.167602539063	-414.4772338867189	692.6832885742189	-1143.333740234375	-391.4370727539064	513.6539916992189	-1152.669189453125	-379.5426635742188	479.2211303710939	-1038.223876953125	-360.3534545898438	316.8375549316407	-1125.209838867188	-409.4753723144532	283.2517089843751	-1193.935424804688	-371.9570007324219	275.7437438964844	-1168.130249023438	-372.2516174316407	194.5193786621094	-1146.864990234375	-430.895965576172	101.9359130859375	-1199.832153320313	-391.8099975585939	103.6516799926758	-1117.853759765625	-487.3020629882814	52.27929687500001	-1166.75146484375	-270.4853515625001	60.73895645141603	-1140.3291015625	-264.6552734375001	60.56654739379884	-1185.017944335938	-303.8184509277344	36.29880142211915	-1241.686157226563	-441.9708251953126	765.3805541992189	-741.6787109375001	-407.5064392089845	708.3505249023439	-734.4910278320314	-374.3764648437501	707.6301269531251	-738.3753051757814	-440.2683715820314	631.2368774414064	-743.6222534179689	-443.893768310547	503.8331298828126	-732.0687866210939	-420.8430786132814	471.9548950195314	-846.0539550781252	-399.6878356933595	340.9592590332032	-718.9220581054689	-475.0277099609376	260.1253356933594	-699.1768798828126	-427.9901428222657	261.8340454101563	-696.3065795898439	-399.7423706054689	213.4948425292969	-716.9093017578126	-443.1310424804689	94.2523880004883	-692.5225830078126	-411.3462829589845	102.4153823852539	-770.550720214844	-494.9295959472657	49.44544982910158	-739.5080566406251	-277.2088317871094	53.7748146057129	-736.5926513671876	-277.2215881347657	59.05639266967775	-684.5823364257814	-322.8718261718751	37.0454216003418	-636.9785766601564	-4216.942382812501	853.211853027344	-3944.802001953126	
